<svg id="Layer_1" data-name="Layer 1" xmlns="http://www.w3.org/2000/svg" viewBox="0 0 145 92"><defs><style>.cls-1{fill:#eb92bb;}.cls-2{fill:#d2376d;}.cls-3{fill:#231f20;}.cls-4{fill:#fff;}.cls-5{fill:#9e2952;}</style></defs><title>boy_and_girl</title><path class="cls-1" d="M74.77,21.19a2.7,2.7,0,0,0,.31,3.13l0,0a1.81,1.81,0,0,1-1-.73,3.11,3.11,0,0,1,0-3.48,1.94,1.94,0,0,1,1.62-.52,1.69,1.69,0,0,1,.55.15A3.16,3.16,0,0,0,74.77,21.19Z"/><path class="cls-1" d="M99.4,33.13c-1.59.33-3.46.83-5.24,1.36.4,1.11.19,2.67-1.38,6.33-1.88,4.37-9.15,9.27-10.34,9.43a1,1,0,0,1-.29,0c-2-.38-11.88-4.55-12.36-5.67-.24-.55.07-1.25.46-2.13.48-1.09,1-2.32.55-3.3C69.67,36.81,58.19,21.71,54.61,21c-1.51-.28-4.08.82-7.33,2.21-4.76,2-10.68,4.57-17.21,4.57-3.41,0-8.9-1.82-13-6.21a27.55,27.55,0,0,1,3.06,9.47c.29,2.43.75,5.26,1.16,7.76A53.13,53.13,0,0,1,22,44.62c4.85,1.89,9.79,3.55,13.09,4,4.54.68,8.14,2.76,12.68,5.39a109.48,109.48,0,0,0,13.86,7.07,111.16,111.16,0,0,0,45,8.32l3.25-.11c9.78-.33,27.56-.95,29.81-2.61a1,1,0,0,1,0-.48c1.15-5.15-10.79-12.47-20.38-18.35-3.71-2.27-6.91-4.25-9.11-5.92h0c-1.44-.64-5.31-4-8.13-6.52C100.87,34.36,99.82,33.44,99.4,33.13Z"/><path class="cls-2" d="M81.93,34.55c1.38,3-1.24,9-2.64,12.19-.26.6-.46,1.05-.59,1.4a21.71,21.71,0,0,0,3.64,1.27c.67-.12,7.85-4.73,9.66-8.92,1.6-3.72,1.64-5,1.35-5.74-2,.63-3.88,1.26-5,1.68a3.18,3.18,0,0,1-3.1,1.2l-.3,0c-1-.19-3.23-1-3.16-4.67a3.32,3.32,0,0,1,2.38-2.54,1.26,1.26,0,0,1,.94.12,9.75,9.75,0,0,1,3.83-2.23c-1.3-.14-2.91-.36-4.59-.67a29.43,29.43,0,0,1-8-2.44,2.76,2.76,0,0,1-1.25.1,2.35,2.35,0,0,1-.48-.2C78.06,29,81.18,32.89,81.93,34.55Z"/><path class="cls-2" d="M102.66,34.79c1.83,1.61,4.3,3.78,6.09,5.15a33.58,33.58,0,0,0-3.46-4.3c-1.3-1.44-1.88-2.09-1.94-2.56,0,0,0-.12,0-.18a5.5,5.5,0,0,0-2.79,0C101,33.35,101.7,34,102.66,34.79Z"/><path class="cls-1" d="M84.36,31.2c-.78.2-1.72,1.13-1.73,1.73-.05,3.11,1.67,3.75,2.7,3.85a3.48,3.48,0,0,0,.73,0,3.41,3.41,0,0,1-1.73-1.19,3.55,3.55,0,0,1,.2-4.39Z"/><path class="cls-3" d="M96.19,26.75l0,.07h.09Z"/><path class="cls-2" d="M73.43,6.86a18,18,0,0,1,2.77-.45c.47-.05.88-.1,1.15-.15.86-.16,1.48,1.25,2.64,4.31l.18.47a27.45,27.45,0,0,0,1.19-2.88L79.8,6.92a.42.42,0,0,1-.16-.31c0-.59-.34-2.21-1.24-2.68s-2.48.77-3.9,1.82c-.37.27-.73.54-1.08.78a1.7,1.7,0,0,1-.35.16l.41.3Z"/><path class="cls-1" d="M66.81,10.15c-.43.09-1.46.5-1.6,2.22-.06.72.81,1.79,1.87,2.29l.1,0a3.5,3.5,0,0,1-.72-2.81,2.42,2.42,0,0,1,1.16-1.72A1.81,1.81,0,0,0,66.81,10.15Z"/><path class="cls-1" d="M77.44,7.12c-.28.05-.69.1-1.15.15-.65.07-1.38.17-2,.3,1.45,1,3.19,2.26,4.51,3.18l.51.36-.09-.23C78.76,9.75,77.89,7.45,77.44,7.12Z"/><path class="cls-4" d="M82,13.19A9.21,9.21,0,0,1,85,15.36c.16-.19.34-.4.47-.56l0,0a2.75,2.75,0,0,1,.09-.76,3.49,3.49,0,0,0,.12-.81A35.56,35.56,0,0,1,82,8.77a25.1,25.1,0,0,1-1.73,3.8Z"/><path class="cls-1" d="M42.19,12.59l-.75-.49a68.57,68.57,0,0,0-13-7c5,1.88,11.8,6.1,13.07,8Z"/><path class="cls-5" d="M23.65,5.11c-1.86.6-2.92,1.2-3.12,1.79-.11.3,0,.64.36,1.19.91,1.38,4.33,5.51,8,6.46a20.3,20.3,0,0,0,11.93-1c-.88-1.39-10.13-7.46-15.28-8.41A4,4,0,0,0,23.65,5.11Z"/><path class="cls-2" d="M63.47,13.44A125.33,125.33,0,0,1,73,23.28a3.79,3.79,0,0,1,.43-3.7,2.79,2.79,0,0,1,2.35-.82,2.1,2.1,0,0,1,1.43.7,4.84,4.84,0,0,1,1.77,0c1.05.19,2.08.45,3.09.73L82,20a3.52,3.52,0,0,0-2-1.82,25.47,25.47,0,0,0-7.58-2,23.59,23.59,0,0,1-3.72-.74,1.64,1.64,0,0,1-1.2.22,3.21,3.21,0,0,1-.78-.26c-1.24-.58-2.46-1.92-2.36-3.14a3,3,0,0,1,2.27-3,2.14,2.14,0,0,1,2,.52c2.11-.35,7.52,1.29,10.86,2.44l-1.17-.82c-2.18-1.52-5.45-3.81-6.81-4.9a8,8,0,0,1-1.61-1.35c-.68-.68-1.41-1.39-1.93-1.32a69.19,69.19,0,0,0-9.8,2.17c.22.35.46.75.76,1.27A21.48,21.48,0,0,0,63.47,13.44Z"/><path class="cls-4" d="M75.54,21.57a1.9,1.9,0,0,0,.13,2.12c2.8,2.59,14.43,4,15.84,3.84s2.72-.47,3.85-.61l-1-.54c-2.86-1.57-8.8-4.85-15.53-6.09C76.64,19.89,75.8,21.05,75.54,21.57Z"/><path class="cls-3" d="M95,25.58l0,.1-.16,0,.51.28Z"/><path class="cls-2" d="M86.32,16.94a22.53,22.53,0,0,1,1.06,5h-.22c.44.18.88.36,1.3.54.26-.82.58-2.45.7-3a18.4,18.4,0,0,1-1.51-1.92,21.89,21.89,0,0,0-1.59-2l-.44.52A7.42,7.42,0,0,1,86.32,16.94Z"/><path class="cls-4" d="M94.42,23.81a.37.37,0,0,0-.07-.15c-.16-.18-.47-.59-.9-1.15a20.45,20.45,0,0,0-2.36-2.85,1.93,1.93,0,0,0-.51,0,2.9,2.9,0,0,1-.62,0c-.14.74-.45,2.25-.71,3l-.34-.11c2.13,1,3.92,1.9,5.23,2.62C94.21,25,94.33,24.35,94.42,23.81Z"/><path class="cls-4" d="M85.45,31.31c-1.56,1.83-.83,3.22-.44,3.74a2,2,0,0,0,2.14.93c.76-.34,12.16-4.52,15.86-4-.61-1.67-1.87-4.35-2.5-4.64a2.47,2.47,0,0,0-1.49.08,3.67,3.67,0,0,1-1.48.09c-.42.07-1,.14-1.65.23C92.8,28.11,87.64,28.75,85.45,31.31Z"/><path class="cls-2" d="M30.07,27c6.35,0,12.18-2.49,16.87-4.5C50.32,21,53,19.87,54.76,20.2,59,21,70.65,36.86,71.57,38.75c.65,1.33,0,2.83-.54,4-.23.52-.55,1.24-.46,1.44.4.55,4.16,2.28,7.34,3.6.14-.36.33-.81.6-1.42,1.25-2.86,3.87-8.8,2.65-11.49-1.63-3.59-15.26-18.41-18.21-20.79a22.16,22.16,0,0,1-4.79-6.36c-.34-.6-.63-1.09-.86-1.42a18.53,18.53,0,0,0-1.86.7L44.54,12.15a13.26,13.26,0,0,0-1.7,1l-1.46,1h0l0,0a21.35,21.35,0,0,1-11.74,1.36c-.33-.06-.64-.13-1-.21-3.89-1-7.5-5.36-8.46-6.81a2.18,2.18,0,0,1-.45-1.94C20,5.73,21.17,5,23.39,4.3a4.69,4.69,0,0,1,2.25,0l.17,0c-.34-.08-.69-.2-1-.26-2.59-.48-4.6-.2-6,.82a24.09,24.09,0,0,1-2.72,4.85,27.1,27.1,0,0,0-1.72,2.82,22.25,22.25,0,0,0-.74,2.35l.12,0C17.11,23.67,25.55,27,30.07,27Z"/><path class="cls-4" d="M20.39,39c-.41-2.5-.87-5.34-1.16-7.79-.73-6.1-3.8-10.81-5.45-13.35-.27-.41-.49-.75-.67-1.06-.55,2.07-1.21,4.62-1.87,7.15-2.31,8.94-3.38,12.9-4,14.21,1.81,1,7.66,3.68,13.89,6.15C21.09,43.26,20.74,41.1,20.39,39Z"/><path class="cls-2" d="M141.83,72.33a11.33,11.33,0,0,1-.3-2.56A5.15,5.15,0,0,0,141.3,68a1.72,1.72,0,0,0-.64-.43,3.79,3.79,0,0,1-.44-.25c-2.41,1.57-12.42,2.21-30.28,2.82l-3.25.11a109,109,0,0,1-23.17-1.84,109.91,109.91,0,0,1-22.2-6.54,109.76,109.76,0,0,1-14-7.12c-4.46-2.59-8-4.64-12.37-5.28-8-1.19-24.86-8.87-28.16-10.63C6,40,4.2,45.34,4.32,53.6c0,1.49,7.73,3.92,13.92,5.87a123.45,123.45,0,0,1,12,4.21c2.88,1.3,6.21,3,9.74,4.75,11.7,5.89,27.73,14,45.47,17.24l.4.07C93,87,128.76,93,140.89,85,142.92,83.66,142.37,74.19,141.83,72.33Z"/><path class="cls-4" d="M67.82,14.16c1,.67,2.72.92,4.71,1.21a26,26,0,0,1,7.83,2,4.34,4.34,0,0,1,2.38,2.21,1.49,1.49,0,0,0,.49.66l-.14.21c1.18.36,2.33.75,3.41,1.17a21.45,21.45,0,0,0-.91-4.28A9.42,9.42,0,0,0,81.66,14c-2.13-.85-10.8-3.84-13.06-3.31A1.59,1.59,0,0,0,67.3,12,2.61,2.61,0,0,0,67.82,14.16Z"/><path class="cls-1" d="M142.65,72.09a10.76,10.76,0,0,1-.27-2.36,4.61,4.61,0,0,0-.38-2.19,2.32,2.32,0,0,0-1-.71c-.52-.26-.51-.3-.48-.43,1.28-5.74-10.44-12.93-20.77-19.26a110.42,110.42,0,0,1-9.6-6.29c-.71-1.85-2.76-4.12-4.26-5.78a13.53,13.53,0,0,1-1.73-2.1c-.13-.91-2-5.82-3.33-6.41a3.2,3.2,0,0,0-2.05,0,2.19,2.19,0,0,1-1.29.09,12,12,0,0,1-2.3-2.07A1.48,1.48,0,0,0,95,23.07c-.13-.14-.47-.6-.83-1.09-1.82-2.43-2.41-3.08-2.85-3.16a2.36,2.36,0,0,0-.86,0,1.71,1.71,0,0,1-.62,0A16.73,16.73,0,0,1,88.34,17a10.33,10.33,0,0,0-2-2.34c0-.12.05-.27.08-.39.14-.65.32-1.46-.26-1.73A43.14,43.14,0,0,1,82.56,8L82.48,8l-2-1.59c-.07-.62-.39-2.52-1.68-3.19A1.62,1.62,0,0,0,78.34,3c-1.26-.23-2.83.93-4.35,2-.36.27-.72.53-1.06.76-.73.49-1.6-.36-2.46-1.23S68.71,2.91,67.81,3A58.64,58.64,0,0,0,55.05,6.26L42.86,12l-.94-.61c-2.92-1.91-10.67-7-17-8.16C22,2.69,19.77,3,18.18,4.29a.43.43,0,0,0-.14.21,22.62,22.62,0,0,1-2.66,4.77,27.81,27.81,0,0,0-1.78,2.92c-.44.93-1.7,5.84-3.17,11.52S6.89,37.37,6.44,38c-1.11.92-3.1,7.1-3,15.63,0,2,5.54,3.85,14.52,6.68a121.35,121.35,0,0,1,12,4.17c2.87,1.29,6.19,3,9.71,4.73,11.75,5.91,27.84,14,45.7,17.31l.4.07c10,1.81,43.52,7.09,55.61-.87C144.09,83.91,143.07,73.53,142.65,72.09Zm-2.93-5.87a1,1,0,0,0,0,.48c-2.25,1.66-20,2.28-29.81,2.61l-3.25.11a111.15,111.15,0,0,1-45-8.32A109.41,109.41,0,0,1,47.8,54c-4.54-2.64-8.13-4.72-12.67-5.39-3.3-.47-8.25-2.14-13.09-4a53.33,53.33,0,0,0-.8-5.78c-.41-2.49-.87-5.32-1.16-7.76A27.55,27.55,0,0,0,17,21.61c4.14,4.4,9.63,6.21,13,6.22,6.52,0,12.44-2.53,17.21-4.57,3.25-1.39,5.82-2.49,7.33-2.21,3.58.66,15.07,15.77,16.19,18.08.48,1-.07,2.22-.55,3.3-.39.88-.7,1.57-.46,2.13.48,1.13,10.31,5.3,12.36,5.67a1,1,0,0,0,.29,0c1.19-.16,8.46-5.06,10.35-9.43,1.58-3.66,1.78-5.22,1.38-6.33,1.79-.53,3.65-1,5.24-1.36.42.31,1.46,1.23,2.7,2.31,2.82,2.48,6.69,5.88,8.13,6.52h0c2.2,1.67,5.4,3.65,9.11,5.92C128.93,53.75,140.87,61.07,139.72,66.22Zm-57-46.61a4.35,4.35,0,0,0-2.38-2.21,26,26,0,0,0-7.83-2c-2-.29-3.72-.54-4.71-1.21A2.61,2.61,0,0,1,67.3,12a1.59,1.59,0,0,1,1.3-1.35c2.26-.53,10.93,2.46,13.06,3.31a9.41,9.41,0,0,1,3.92,3.38,21.23,21.23,0,0,1,.91,4.28c-1.08-.42-2.22-.81-3.41-1.17l.14-.21A1.47,1.47,0,0,1,82.74,19.61ZM67.18,14.68l-.1,0c-1.05-.5-1.93-1.57-1.87-2.29.14-1.71,1.17-2.12,1.6-2.22a1.8,1.8,0,0,1,.81,0,2.42,2.42,0,0,0-1.16,1.72A3.49,3.49,0,0,0,67.18,14.68Zm27.19,11.7,1,.54c-1.14.14-2.47.32-3.85.61s-13-1.25-15.84-3.84a1.91,1.91,0,0,1-.13-2.12c.26-.52,1.11-1.68,3.3-1.28C85.56,21.54,91.51,24.81,94.36,26.38Zm1.83.37.06.06h-.08ZM74.77,21.19a2.69,2.69,0,0,0,.32,3.13l0,0a1.81,1.81,0,0,1-1-.73,3.11,3.11,0,0,1,0-3.48,1.94,1.94,0,0,1,1.62-.52,1.68,1.68,0,0,1,.54.14A3.17,3.17,0,0,0,74.77,21.19ZM75,25.24a2.78,2.78,0,0,0,1.25-.1,29.4,29.4,0,0,0,8,2.44c1.68.31,3.3.53,4.59.67a9.75,9.75,0,0,0-3.83,2.23,1.26,1.26,0,0,0-.93-.12,3.32,3.32,0,0,0-2.38,2.54c-.06,3.64,2.12,4.48,3.16,4.67l.3,0a3.18,3.18,0,0,0,3.1-1.2c1.12-.42,3-1.06,5-1.69.29.76.25,2-1.35,5.74-1.81,4.2-9,8.8-9.66,8.92a21.72,21.72,0,0,1-3.64-1.27c.13-.34.32-.79.59-1.4,1.4-3.2,4-9.15,2.64-12.19C81.18,32.89,78.06,29,74.56,25A2.33,2.33,0,0,0,75,25.24Zm9.28,10.33a3.41,3.41,0,0,0,1.73,1.19,3.48,3.48,0,0,1-.73,0c-1-.1-2.75-.74-2.7-3.85,0-.59.95-1.53,1.73-1.73l.16,0A3.56,3.56,0,0,0,84.33,35.57Zm21,.07a33.46,33.46,0,0,1,3.46,4.3c-1.78-1.37-4.25-3.54-6.09-5.15-1-.84-1.65-1.44-2.15-1.87a5.51,5.51,0,0,1,2.79,0c0,.06,0,.14,0,.18C103.41,33.55,104,34.21,105.28,35.64ZM99,27.41a2.47,2.47,0,0,1,1.49-.08c.63.29,1.9,3,2.5,4.64-3.7-.5-15.1,3.67-15.85,4A2,2,0,0,1,85,35.05c-.39-.51-1.12-1.91.44-3.74,2.19-2.57,7.35-3.21,10.43-3.59.66-.08,1.23-.15,1.65-.23A3.68,3.68,0,0,0,99,27.41ZM95.3,25.92l-.51-.28.16,0,0-.1ZM90.59,19.7a1.93,1.93,0,0,1,.51,0,20.44,20.44,0,0,1,2.36,2.85c.43.57.73,1,.9,1.15a.39.39,0,0,1,.07.15c-.09.54-.21,1.17-.27,1.49-1.32-.72-3.1-1.67-5.24-2.62l.35.11c.26-.79.56-2.31.71-3A2.9,2.9,0,0,0,90.59,19.7Zm-2.94-2.21a18.79,18.79,0,0,0,1.51,1.92c-.11.61-.43,2.23-.7,3.05-.42-.18-.86-.36-1.3-.54h.22a22.46,22.46,0,0,0-1.06-5,7.2,7.2,0,0,0-.7-1l.44-.52A21.71,21.71,0,0,1,87.65,17.49Zm-1.9-4.24a3.56,3.56,0,0,1-.12.81,2.58,2.58,0,0,0-.09.76l0,0-.46.56A9.22,9.22,0,0,0,82,13.19l-1.67-.61A24.75,24.75,0,0,0,82,8.77,35.43,35.43,0,0,0,85.75,13.26ZM74.49,5.76c1.42-1,3.09-2.25,3.9-1.82S79.6,6,79.63,6.62a.43.43,0,0,0,.16.31l1.56,1.23A27.14,27.14,0,0,1,80.16,11L80,10.57c-1.16-3.06-1.78-4.46-2.64-4.31-.26.05-.67.1-1.15.15a18,18,0,0,0-2.77.45l0,.14-.41-.3a1.71,1.71,0,0,0,.35-.16C73.76,6.3,74.12,6,74.49,5.76Zm4.78,5.35-.51-.36c-1.32-.92-3.06-2.14-4.51-3.18.66-.13,1.39-.23,2-.3.47,0,.87-.1,1.15-.15.45.34,1.32,2.64,1.75,3.76ZM67.93,3.89c.52-.07,1.25.64,1.93,1.32a8.05,8.05,0,0,0,1.61,1.35c1.35,1.09,4.63,3.38,6.81,4.9l1.17.82C76.1,11.12,70.7,9.48,68.59,9.83a2.14,2.14,0,0,0-2-.52,3,3,0,0,0-2.27,3c-.1,1.22,1.12,2.55,2.35,3.14a3.24,3.24,0,0,0,.78.26,1.63,1.63,0,0,0,1.2-.22,23.64,23.64,0,0,0,3.72.74,25.45,25.45,0,0,1,7.58,2A3.51,3.51,0,0,1,82,20l.11.19c-1-.28-2-.53-3.09-.73a4.86,4.86,0,0,0-1.77,0,2.1,2.1,0,0,0-1.43-.7,2.78,2.78,0,0,0-2.35.82,3.8,3.8,0,0,0-.43,3.7,124.82,124.82,0,0,0-9.54-9.84,21.51,21.51,0,0,1-4.59-6.11c-.29-.51-.53-.92-.76-1.27A69.1,69.1,0,0,1,67.93,3.89ZM42.2,12.59l-.73.5c-1.27-1.88-8.09-6.1-13.07-8a68.67,68.67,0,0,1,13,7ZM16.08,9.73a24.28,24.28,0,0,0,2.73-4.85c1.39-1,3.4-1.3,6-.82.33.06.68.17,1,.26l-.17,0a4.69,4.69,0,0,0-2.25,0C21.17,5,20,5.73,19.72,6.62a2.18,2.18,0,0,0,.45,1.94c1,1.45,4.57,5.8,8.46,6.81.31.08.63.15,1,.21a21.35,21.35,0,0,0,11.74-1.36s0,0,0,0h0l1.46-1a13.37,13.37,0,0,1,1.7-1L55.42,7a18.34,18.34,0,0,1,1.86-.7c.24.34.52.82.86,1.42a22.1,22.1,0,0,0,4.79,6.36c3,2.38,16.58,17.2,18.21,20.79,1.22,2.69-1.39,8.63-2.65,11.49-.27.61-.46,1.06-.6,1.42-3.18-1.32-6.94-3.05-7.34-3.6-.09-.21.22-.92.46-1.44.53-1.19,1.19-2.69.54-4C70.65,36.86,59,21,54.76,20.2c-1.76-.33-4.44.82-7.83,2.27-4.69,2-10.52,4.5-16.87,4.5-4.52,0-13-3.29-16.33-12.1l-.12,0a22.09,22.09,0,0,1,.74-2.35A27.32,27.32,0,0,1,16.08,9.73ZM27.55,4.8l-.69-.22Zm13.22,8.73a20.3,20.3,0,0,1-11.92,1c-3.63-.94-7-5.08-8-6.46-.36-.54-.46-.89-.36-1.18.21-.59,1.26-1.19,3.12-1.79a4,4,0,0,1,1.83,0C30.64,6.08,39.9,12.15,40.77,13.53ZM11.24,23.92c.65-2.53,1.31-5.08,1.87-7.15.19.31.41.65.67,1.06,1.65,2.53,4.72,7.24,5.45,13.35.29,2.45.75,5.29,1.16,7.79.34,2.13.7,4.29.78,5.32C14.95,41.82,9.1,39.09,7.28,38.14,7.87,36.83,8.94,32.87,11.24,23.92ZM140.89,85c-12.13,8-47.93,2-55,.75l-.4-.07C67.76,82.39,51.73,74.32,40,68.43c-3.53-1.77-6.86-3.46-9.74-4.75a123.61,123.61,0,0,0-12.05-4.21C12,57.53,4.34,55.1,4.32,53.6,4.2,45.34,6,40,6.83,38.86,10.13,40.62,27,48.3,35,49.49c4.41.65,7.92,2.69,12.37,5.28a109.76,109.76,0,0,0,14,7.12,109.89,109.89,0,0,0,22.2,6.54,108.94,108.94,0,0,0,23.17,1.84l3.25-.11c17.86-.62,27.87-1.25,30.28-2.82a3.87,3.87,0,0,0,.44.25,1.7,1.7,0,0,1,.64.43,5.14,5.14,0,0,1,.23,1.75,11.24,11.24,0,0,0,.31,2.56C142.37,74.19,142.92,83.66,140.89,85Z"/></svg>