<svg id="Layer_1" data-name="Layer 1" xmlns="http://www.w3.org/2000/svg" viewBox="0 0 76 128"><defs><style>.cls-1{fill:#eb92bb;}.cls-2{fill:#d2376d;}</style></defs><title>boy_and_girl</title><circle class="cls-1" cx="39.63" cy="61.76" r="24.67" transform="translate(-3.01 2.04) rotate(-2.84)"/><path class="cls-2" d="M53.46,85.56l19.16,35.33s-12.17,4.65-19.73-4.71c-2.46,4.43-4.35,8.29-11.08,8.62s-9-3.32-11.86-7.48C23.37,127.38,10.8,124,10.8,124L26.06,87.36l9.48,2.1Z"/><path class="cls-2" d="M51.36,43.16,66.78,3.09S54.21-.34,47.62,9.72c-2.89-4.16-5.14-7.8-11.87-7.47s-8.6,4.17-11.06,8.6C17.13,1.49,5,6.15,5,6.15L23.83,42.33,33,38Z"/><path class="cls-2" d="M41,41.41a23,23,0,0,1,14,7.35,23.57,23.57,0,0,1,6.06,14.47v.23a22.45,22.45,0,0,1-4.84,14.91,19.94,19.94,0,0,1-13.6,7.69c-.37,0-.73.07-1.11.09-6.07.31-12.23-2.31-16.92-6.65s-7.83-10.31-8.11-16.24A18.5,18.5,0,0,1,17,57.93a23.18,23.18,0,0,1,7.41-12.48A19.41,19.41,0,0,1,36,40.9,20.09,20.09,0,0,1,47.68,44a15,15,0,0,1,5.14,6.23,24.1,24.1,0,0,1,2.37,9.28A17.76,17.76,0,0,1,54,67.29a10.11,10.11,0,0,1-4.35,5.1,15.57,15.57,0,0,1-7,2,15.81,15.81,0,0,1-9.14-2.28A10.57,10.57,0,0,1,28.63,65a11.19,11.19,0,0,1-.19-1.57,9.79,9.79,0,0,1,.32-3.07,6.53,6.53,0,0,1,2.38-3.54,10.88,10.88,0,0,1,6.13-1.85h.19a8.3,8.3,0,0,1,4.81,1.15,4.83,4.83,0,0,1,2.27,3.29l.07.54a3.9,3.9,0,0,1-3.16,4l-.35,0a2.45,2.45,0,0,1-2.53-2,3.18,3.18,0,0,0-6.25,1.19,8.83,8.83,0,0,0,9.1,7.18,9.82,9.82,0,0,0,1.22-.15,10.24,10.24,0,0,0,8.32-10.56,11.93,11.93,0,0,0-.17-1.43,11.24,11.24,0,0,0-5.1-7.46,14.65,14.65,0,0,0-8.47-2.14h-.25A19.09,19.09,0,0,0,30,50.14a13,13,0,0,0-6.4,6,15,15,0,0,0-1.54,7.62,18.7,18.7,0,0,0,.29,2.45,17,17,0,0,0,7.75,11.28A22.22,22.22,0,0,0,43,80.71a21.89,21.89,0,0,0,9.81-2.8,16.47,16.47,0,0,0,7.06-8.15,24,24,0,0,0,1.68-10.52,30.57,30.57,0,0,0-3-11.75,21.35,21.35,0,0,0-7.46-8.82,26.38,26.38,0,0,0-15.42-4.1,25.72,25.72,0,0,0-15.32,6,29.61,29.61,0,0,0-9.5,15.84,24.8,24.8,0,0,0-.68,7.17c.41,7.92,4.38,15.24,10.13,20.58s13.44,8.72,21.55,8.34c.49,0,1-.07,1.48-.12A26.41,26.41,0,0,0,61.22,82.32a28.93,28.93,0,0,0,6.19-19.17v-.29A29.94,29.94,0,0,0,59.71,44.5a29.4,29.4,0,0,0-17.83-9.38A3.18,3.18,0,0,0,41,41.41Z"/></svg>