<?xml version="1.0" encoding="utf-8"?>
<!-- Generator: Adobe Illustrator 25.0.0, SVG Export Plug-In . SVG Version: 6.00 Build 0)  -->
<svg version="1.1" id="Layer_1" xmlns="http://www.w3.org/2000/svg" xmlns:xlink="http://www.w3.org/1999/xlink" x="0px" y="0px"
	 viewBox="0 0 45.7 54.1" style="enable-background:new 0 0 45.7 54.1;" xml:space="preserve">
<style type="text/css">
	.st0{fill:#003C57;}
	.st1{fill:#206095;}
	.st2{fill:#FFFFFF;}
	.st3{fill:#99B1BC;}
	.st4{opacity:0.4;}
	.st5{fill:none;stroke:#003C57;stroke-width:2;stroke-miterlimit:10;}
	.st6{fill:none;stroke:#003C57;stroke-width:2;stroke-linecap:round;stroke-linejoin:round;stroke-miterlimit:10;}
</style>
<g>
	<g>
		<g>
			<path class="st0" d="M39.3,37.3c0-1.3,1.6-3.9,2.4-4.8c0.3-0.4,0.8-0.4,1.1,0c0.8,1,2.4,3.5,2.4,4.8c0,1.6-1.3,3-2.9,3
				S39.3,39,39.3,37.3z"/>
		</g>
	</g>
	<g>
		<g>
			<path class="st1" d="M16.8,16.4v-1.5c0-0.6,0.4-1.2,1-1.4c4.5-1.9,18.6-9.9,18.7-10c0.2-0.1,0.4-0.2,0.6-0.4
				c0.4-0.2,0.5-0.9,0.4-1.5c-0.2-0.7-0.9-1.1-1.6-1c-0.1,0-0.3,0.1-0.3,0.1L2.3,9.3c0,0,0,0,0,0c-1,0.1-1.7,1-1.7,2v5.1H16.8z"/>
		</g>
		<g>
			<path class="st1" d="M45.2,28.6L45.2,28.6c-0.1-3.2-2.8-5.7-6.1-5.6l-22.4,0.9v-4.5H0.5v34h16.3V33.3l22.4-3.7v1.6h6.1L45.2,28.6
				L45.2,28.6z"/>
		</g>
	</g>
</g>
</svg>
