<?xml version="1.0" encoding="utf-8"?>
<!-- Generator: Adobe Illustrator 25.0.0, SVG Export Plug-In . SVG Version: 6.00 Build 0)  -->
<svg version="1.1" id="Layer_1" xmlns="http://www.w3.org/2000/svg" xmlns:xlink="http://www.w3.org/1999/xlink" x="0px" y="0px"
	 viewBox="0 0 72.8 54.1" style="enable-background:new 0 0 72.8 54.1;" xml:space="preserve">
<style type="text/css">
	.st0{fill:#003C57;}
	.st1{fill:#206095;}
	.st2{fill:#FFFFFF;}
	.st3{fill:#99B1BC;}
	.st4{opacity:0.4;}
	.st5{fill:none;stroke:#003C57;stroke-width:2;stroke-miterlimit:10;}
	.st6{fill:none;stroke:#003C57;stroke-width:2;stroke-linecap:round;stroke-linejoin:round;stroke-miterlimit:10;}
</style>
<g>
	<g>
		<path class="st0" d="M20.9,46.9h-1c-7.3,0-13.8-4.9-17.2-13.2C0.5,28.1-0.3,21,2.6,18.1c1.1-1.1,2.6-1.7,4.1-1.6
			c4.5,0.3,8.9,6.1,9.4,6.8l-2.4,1.8c-1-1.4-4.5-5.4-7.2-5.6c-0.7-0.1-1.3,0.2-1.8,0.7C3.3,21.6,3.3,27,5.5,32.5
			c1.4,3.4,5.7,11.4,14.4,11.4h1V46.9z"/>
	</g>
	<g>
		<path class="st0" d="M52.8,46.9h-1.1v-3h1.1c8.8,0,13-7.9,14.4-11.4c2.3-5.5,2.2-10.9,0.8-12.3c-0.5-0.5-1.1-0.8-1.8-0.7
			c-2.7,0.2-6.2,4.2-7.2,5.6l-2.4-1.8c0.5-0.7,4.9-6.4,9.4-6.8c1.6-0.1,3,0.4,4.1,1.6c2.9,2.9,2.1,10-0.2,15.6
			C66.5,41.9,60.1,46.9,52.8,46.9z"/>
	</g>
	<g>
		<path class="st1" d="M59.1,23.4l0-0.5h-0.5c-10,0-13.4-2.6-16.1-5.3c-3.1-3.1-4.2-3.2-6.1-3.2s-3.1,0.1-6.1,3.2
			c-2.7,2.7-6.2,5.3-16.1,5.3h-0.5l0,0.5c0,0.6-1.1,15.1,7,23.9c3.9,4.2,9.1,6.3,15.7,6.3s11.9-2.1,15.7-6.3
			C60.2,38.5,59.2,24,59.1,23.4z M35.8,46.1c-3.6,0-7.7-0.3-11.8-1.1l0.6-2.9c11.5,2.3,22.9,0,23,0l0.6,2.9
			C47.9,45,42.8,46.1,35.8,46.1z M50.3,37.8H22v-3h28.2V37.8z M50.1,30.7c-0.1,0-13.9-2-27.8,0l-0.4-3c14.4-2,28.1-0.1,28.7,0
			L50.1,30.7z"/>
	</g>
</g>
</svg>
