<?xml version="1.0" encoding="utf-8"?>
<!-- Generator: Adobe Illustrator 25.0.0, SVG Export Plug-In . SVG Version: 6.00 Build 0)  -->
<svg version="1.1" id="Layer_1" xmlns="http://www.w3.org/2000/svg" xmlns:xlink="http://www.w3.org/1999/xlink" x="0px" y="0px"
	 viewBox="0 0 65.4 54.1" style="enable-background:new 0 0 65.4 54.1;" xml:space="preserve">
<style type="text/css">
	.st0{fill:#003C57;}
	.st1{fill:#206095;}
	.st2{fill:#FFFFFF;}
	.st3{fill:#99B1BC;}
	.st4{opacity:0.4;}
	.st5{fill:none;stroke:#003C57;stroke-width:2;stroke-miterlimit:10;}
	.st6{fill:none;stroke:#003C57;stroke-width:2;stroke-linecap:round;stroke-linejoin:round;stroke-miterlimit:10;}
</style>
<g>
	<g>
		<circle class="st1" cx="9.9" cy="16.9" r="3.6"/>
	</g>
	<g>
		<path class="st1" d="M19.1,34.6l-2.8-8.7c-0.8-2.4-3-4-5.5-4l-1.7,0c-2.5,0-4.7,1.6-5.5,4l-2.8,8.7c-0.3,0.9,0.2,2,1.2,2.3l0,0
			c0.9,0.3,2-0.2,2.3-1.2l0.7-2.1v4.2h0v13.6c0,1.2,1,2.2,2.2,2.2c1.4,0,2.1-1.1,2.2-2.2c0-1,0.7-13.4,0.7-13.6h0
			c0,0.2,0.7,12.6,0.7,13.6c0,1,0.8,2.2,2.2,2.2c1.2,0,2.2-1,2.2-2.2V37.7h0v-4.2l0.7,2.1c0.3,0.9,1.3,1.5,2.3,1.2l0,0
			C18.9,36.5,19.4,35.5,19.1,34.6z"/>
	</g>
</g>
<g>
	<g>
		<circle class="st1" cx="55.4" cy="16.9" r="3.6"/>
	</g>
	<g>
		<path class="st1" d="M64.5,34.6l-2.8-8.7c-0.8-2.4-3-4-5.5-4l-1.7,0c-2.5,0-4.7,1.6-5.5,4l-2.8,8.7c-0.3,0.9,0.2,2,1.2,2.3l0,0
			c0.9,0.3,2-0.2,2.3-1.2l0.7-2.1v4.2h0v13.6c0,1.2,1,2.2,2.2,2.2c1.4,0,2.1-1.1,2.2-2.2c0-1,0.7-13.4,0.7-13.6h0
			c0,0.2,0.7,12.6,0.7,13.6c0,1,0.8,2.2,2.2,2.2c1.2,0,2.2-1,2.2-2.2V37.7h0v-4.2l0.7,2.1c0.3,0.9,1.3,1.5,2.3,1.2l0,0
			C64.3,36.5,64.8,35.5,64.5,34.6z"/>
	</g>
</g>
<path class="st0" d="M46.8,45.1L43.8,42c-0.4-0.4-1-0.4-1.4,0s-0.4,1,0,1.4l1.4,1.4H21.6l1.4-1.4c0.4-0.4,0.4-1,0-1.4s-1-0.4-1.4,0
	l-3.1,3.1c-0.2,0.2-0.3,0.4-0.3,0.7s0.1,0.5,0.3,0.7l3.1,3.1c0.2,0.2,0.5,0.3,0.7,0.3s0.5-0.1,0.7-0.3c0.4-0.4,0.4-1,0-1.4l-1.4-1.4
	h22.2l-1.4,1.4c-0.4,0.4-0.4,1,0,1.4c0.2,0.2,0.5,0.3,0.7,0.3s0.5-0.1,0.7-0.3l3.1-3.1c0.2-0.2,0.3-0.4,0.3-0.7S47,45.3,46.8,45.1z"
	/>
</svg>
