<?xml version="1.0" encoding="utf-8"?>
<!-- Generator: Adobe Illustrator 25.0.0, SVG Export Plug-In . SVG Version: 6.00 Build 0)  -->
<svg version="1.1" id="Layer_1" xmlns="http://www.w3.org/2000/svg" xmlns:xlink="http://www.w3.org/1999/xlink" x="0px" y="0px"
	 viewBox="0 0 54.3 54.1" style="enable-background:new 0 0 54.3 54.1;" xml:space="preserve">
<style type="text/css">
	.st0{fill:#206095;}
	.st1{fill:#003C57;}
	.st2{fill:#FFFFFF;}
	.st3{fill:#99B1BC;}
	.st4{opacity:0.4;}
	.st5{fill:none;stroke:#003C57;stroke-width:2;stroke-miterlimit:10;}
	.st6{fill:none;stroke:#003C57;stroke-width:2;stroke-linecap:round;stroke-linejoin:round;stroke-miterlimit:10;}
</style>
<path class="st0" d="M27.1,3.5c-13,0-23.6,10.6-23.6,23.6s10.5,23.6,23.6,23.6s23.6-10.6,23.6-23.6S40.1,3.5,27.1,3.5z M27,6.9
	c2,0,3.6,1.6,3.6,3.6S29,14.1,27,14.1c-2,0-3.6-1.6-3.6-3.6S25,6.9,27,6.9z M35,30.5L35,30.5c-0.9,0.3-2-0.2-2.3-1.2l-0.7-2.1v4.2
	v13.7c0,1.2-1,2.2-2.2,2.2c-1.4,0-2.1-1.1-2.2-2.2c0-1-0.7-13.5-0.7-13.7h0c0,0.2-0.7,12.7-0.7,13.7c0,1-0.8,2.2-2.2,2.2
	c-1.2,0-2.2-1-2.2-2.2V31.4h0v-4.2l-0.7,2.2C21,30.3,20,30.8,19,30.5h0c-0.9-0.3-1.5-1.3-1.2-2.3l2.8-8.7c0.8-2.4,3-4,5.5-4l1.7,0
	c2.5,0,4.7,1.6,5.5,4l2.8,8.7C36.5,29.2,36,30.2,35,30.5z"/>
<path class="st1" d="M27.1,1C12.7,1,1,12.6,1,27.1s11.7,26.1,26.1,26.1s26.1-11.7,26.1-26.1S41.5,1,27.1,1z M27.1,50.5
	c-13,0-23.5-10.5-23.5-23.5S14.1,3.6,27.1,3.6s23.5,10.5,23.5,23.5S40.1,50.5,27.1,50.5z"/>
</svg>
