<?xml version="1.0" encoding="utf-8"?>
<!-- Generator: Adobe Illustrator 25.0.0, SVG Export Plug-In . SVG Version: 6.00 Build 0)  -->
<svg version="1.1" id="Layer_1" xmlns="http://www.w3.org/2000/svg" xmlns:xlink="http://www.w3.org/1999/xlink" x="0px" y="0px"
	 viewBox="0 0 65.4 54.1" style="enable-background:new 0 0 65.4 54.1;" xml:space="preserve">
<style type="text/css">
	.st0{fill:#206095;}
	.st1{fill:#003C57;}
	.st2{fill:#FFFFFF;}
	.st3{fill:#99B1BC;}
	.st4{opacity:0.4;}
	.st5{fill:none;stroke:#003C57;stroke-width:2;stroke-miterlimit:10;}
	.st6{fill:none;stroke:#003C57;stroke-width:2;stroke-linecap:round;stroke-linejoin:round;stroke-miterlimit:10;}
</style>
<path class="st0" d="M36.6,7.8c-0.8,1.4-2.3,2.4-4,2.4c-1.7,0-3.2-1-4-2.4H5V40h55.3V7.8H36.6z M32.6,13.9c3.2,0,5.8,2.6,5.8,5.8
	s-2.6,5.8-5.8,5.8c-3.2,0-5.8-2.6-5.8-5.8S29.5,13.9,32.6,13.9z M44.2,37h-23v-1.2c0-4.6,3.8-8.4,8.4-8.4h6.2c4.6,0,8.4,3.8,8.4,8.4
	V37z"/>
<path class="st0" d="M45.6,49h-8.4v-5.7h-9.1V49h-8.4c-0.4,0-0.8,0.3-0.8,0.8v3c0,0.4,0.3,0.8,0.8,0.8h25.8c0.4,0,0.8-0.3,0.8-0.8
	v-3C46.3,49.3,46,49,45.6,49z"/>
<path class="st1" d="M62.6,3.3h-26c-0.8-1.4-2.3-2.3-4-2.3c-1.7,0-3.2,0.9-4,2.3H2.7c-1.1,0-2,0.9-2,2v37.1c0,1.1,0.9,2,2,2h59.9
	c1.1,0,2-0.9,2-2V5.3C64.6,4.2,63.7,3.3,62.6,3.3z M32.6,3.4c1.2,0,2.2,1,2.2,2.2c0,1.2-1,2.2-2.2,2.2c-1.2,0-2.2-1-2.2-2.2
	C30.4,4.4,31.4,3.4,32.6,3.4z M60,39.8H5.3V7.9h23.3c0.8,1.4,2.3,2.3,4,2.3c1.7,0,3.2-0.9,4-2.3H60V39.8z"/>
</svg>
