<?xml version="1.0" encoding="utf-8"?>
<!-- Generator: Adobe Illustrator 25.0.0, SVG Export Plug-In . SVG Version: 6.00 Build 0)  -->
<svg version="1.1" id="Layer_1" xmlns="http://www.w3.org/2000/svg" xmlns:xlink="http://www.w3.org/1999/xlink" x="0px" y="0px"
	 viewBox="0 0 38.8 54.1" style="enable-background:new 0 0 38.8 54.1;" xml:space="preserve">
<style type="text/css">
	.st0{fill:#003C57;}
	.st1{fill:#206095;}
	.st2{fill:#FFFFFF;}
	.st3{fill:#99B1BC;}
	.st4{opacity:0.4;}
	.st5{fill:none;stroke:#003C57;stroke-width:2;stroke-miterlimit:10;}
	.st6{fill:none;stroke:#003C57;stroke-width:2;stroke-linecap:round;stroke-linejoin:round;stroke-miterlimit:10;}
</style>
<g>
	<path class="st1" d="M15.6,0.4h7.6c8.4,0,15.2,6.8,15.2,15.2v19c0,4.2-3.4,7.6-7.6,7.6H8c-4.2,0-7.6-3.4-7.6-7.6v-19
		C0.4,7.3,7.2,0.4,15.6,0.4z"/>
	<path class="st2" d="M34.6,10.9c0.6,1.5,1,3.1,1,4.8v19c0,2.6-2.1,4.8-4.8,4.8H8c-2.6,0-4.8-2.1-4.8-4.8v-19c0-1.7,0.3-3.3,1-4.8
		H34.6z"/>
	<path class="st0" d="M38.4,30.9v3.8c0,4.2-3.4,7.6-7.6,7.6H8c-4.2,0-7.6-3.4-7.6-7.6v-3.8H38.4z"/>
	<g>
		<path class="st2" d="M26.1,7.1H12.8c-0.5,0-1-0.4-1-1v0c0-0.5,0.4-1,1-1h13.3c0.5,0,1,0.4,1,1v0C27,6.7,26.6,7.1,26.1,7.1z"/>
	</g>
	<circle class="st2" cx="32.3" cy="36.1" r="1.4"/>
	<circle class="st2" cx="6.6" cy="36.1" r="1.4"/>
	<g>
		<path class="st1" d="M37,53.7c-0.4,0-0.8-0.2-1-0.5l-5.8-6.2H8.6l-5.8,6.2c-0.5,0.6-1.4,0.6-2,0.1c-0.6-0.5-0.6-1.4-0.1-2L7,44.7
			c0.3-0.3,0.6-0.5,1-0.5h22.8c0.4,0,0.8,0.2,1,0.5l6.2,6.7c0.5,0.6,0.5,1.5-0.1,2C37.7,53.6,37.4,53.7,37,53.7z"/>
	</g>
	<rect x="11.8" y="34.7" class="st2" width="15.2" height="2.9"/>
</g>
</svg>
