<?xml version="1.0" encoding="utf-8"?>
<!-- Generator: Adobe Illustrator 25.0.0, SVG Export Plug-In . SVG Version: 6.00 Build 0)  -->
<svg version="1.1" id="Layer_1" xmlns="http://www.w3.org/2000/svg" xmlns:xlink="http://www.w3.org/1999/xlink" x="0px" y="0px"
	 viewBox="0 0 52.6 54.1" style="enable-background:new 0 0 52.6 54.1;" xml:space="preserve">
<style type="text/css">
	.st0{fill:#003C57;}
	.st1{fill:#206095;}
	.st2{fill:#FFFFFF;}
	.st3{fill:#99B1BC;}
	.st4{opacity:0.4;}
	.st5{fill:none;stroke:#003C57;stroke-width:2;stroke-miterlimit:10;}
	.st6{fill:none;stroke:#003C57;stroke-width:2;stroke-linecap:round;stroke-linejoin:round;stroke-miterlimit:10;}
</style>
<g>
	<polygon class="st0" points="50,25.6 29.9,25.6 44.7,10.8 42.6,8.6 27.8,23.4 27.8,2.5 24.8,2.5 24.8,23.4 10.7,9.3 8.5,11.4 
		22.7,25.6 2.7,25.6 2.7,28.6 22.7,28.6 7.9,43.4 10,45.5 24.8,30.7 24.8,51.6 27.8,51.6 27.8,30.7 42,44.8 44.1,42.7 29.9,28.6 
		50,28.6 	"/>
	<circle class="st1" cx="26.3" cy="27.1" r="18.2"/>
	<circle class="st2" cx="36" cy="20.8" r="3.6"/>
	<g>
		<path class="st2" d="M21.7,38.7c-3.8,0-7-3.1-7-7c0-3.8,3.1-7,7-7s7,3.1,7,7C28.7,35.5,25.5,38.7,21.7,38.7z M21.7,27.8
			c-2.2,0-4,1.8-4,4c0,2.2,1.8,4,4,4s4-1.8,4-4C25.7,29.5,23.9,27.8,21.7,27.8z"/>
	</g>
	<circle class="st2" cx="26.3" cy="15.6" r="1.8"/>
	<circle class="st2" cx="31" cy="37.7" r="1.8"/>
	<circle class="st2" cx="13.7" cy="23.9" r="1.8"/>
	<g>
		<path class="st1" d="M48.9,32.1c-0.4,0-0.8-0.1-1.1-0.4c-0.6-0.6-0.6-1.5,0-2.1c1.4-1.4,1.4-3.6,0-4.9c-0.6-0.6-0.6-1.5,0-2.1
			c0.6-0.6,1.5-0.6,2.1,0c2.5,2.5,2.5,6.6,0,9.1C49.7,31.9,49.3,32.1,48.9,32.1z"/>
	</g>
	<g>
		<path class="st1" d="M3.7,32.1c-0.4,0-0.8-0.1-1.1-0.4c-2.5-2.5-2.5-6.6,0-9.1c0.6-0.6,1.5-0.6,2.1,0c0.6,0.6,0.6,1.5,0,2.1
			c-1.4,1.4-1.4,3.6,0,4.9c0.6,0.6,0.6,1.5,0,2.1C4.4,31.9,4,32.1,3.7,32.1z"/>
	</g>
	<g>
		<path class="st1" d="M39.8,47c-0.8,0-1.5-0.7-1.5-1.5S39,44,39.8,44c1.9,0,3.5-1.6,3.5-3.5c0-0.8,0.7-1.5,1.5-1.5s1.5,0.7,1.5,1.5
			C46.3,44.1,43.4,47,39.8,47z"/>
	</g>
	<g>
		<path class="st1" d="M7.8,15c-0.8,0-1.5-0.7-1.5-1.5c0-3.6,2.9-6.5,6.5-6.5c0.8,0,1.5,0.7,1.5,1.5s-0.7,1.5-1.5,1.5
			c-1.9,0-3.5,1.6-3.5,3.5C9.3,14.4,8.6,15,7.8,15z"/>
	</g>
	<g>
		<path class="st1" d="M29.8,5c-0.4,0-0.8-0.1-1.1-0.4c-1.3-1.3-3.6-1.3-4.9,0c-0.6,0.6-1.5,0.6-2.1,0c-0.6-0.6-0.6-1.5,0-2.1
			c1.2-1.2,2.8-1.9,4.6-1.9s3.4,0.7,4.6,1.9c0.6,0.6,0.6,1.5,0,2.1C30.6,4.9,30.2,5,29.8,5z"/>
	</g>
	<g>
		<path class="st1" d="M26.3,53.6c-1.7,0-3.4-0.7-4.6-1.9c-0.6-0.6-0.6-1.5,0-2.1c0.6-0.6,1.5-0.6,2.1,0c1.3,1.3,3.6,1.3,4.9,0
			c0.6-0.6,1.5-0.6,2.1,0s0.6,1.5,0,2.1C29.7,52.9,28,53.6,26.3,53.6z"/>
	</g>
	<g>
		<path class="st1" d="M45.4,14.4c-0.8,0-1.5-0.7-1.5-1.5c0-0.9-0.4-1.8-1-2.5s-1.5-1-2.5-1c-0.8,0-1.5-0.7-1.5-1.5
			c0-0.8,0.7-1.5,1.5-1.5c1.7,0,3.4,0.7,4.6,1.9c1.2,1.2,1.9,2.8,1.9,4.6C46.9,13.7,46.3,14.4,45.4,14.4z"/>
	</g>
	<g>
		<path class="st1" d="M12.1,47.7c-3.6,0-6.5-2.9-6.5-6.5c0-0.8,0.7-1.5,1.5-1.5s1.5,0.7,1.5,1.5c0,1.9,1.6,3.5,3.5,3.5
			c0.8,0,1.5,0.7,1.5,1.5S13,47.7,12.1,47.7z"/>
	</g>
</g>
</svg>
