<svg id="Layer_1" data-name="Layer 1" xmlns="http://www.w3.org/2000/svg" viewBox="0 0 128 138"><defs><style>.cls-1{fill:#d2376d;}.cls-2{fill:#eb92bb;}</style></defs><title>boy_and_girl</title><circle class="cls-1" cx="65.9" cy="66.84" r="24.67" transform="translate(-27.36 77.46) rotate(90)"/><path class="cls-2" d="M60.75,93.87l-8.67,39.24s-12.24-4.46-11.81-16.49c-4.77,1.74-8.71,3.41-14-.75s-4.61-8.38-4.05-13.42c-11.58,3.29-18.82-7.53-18.82-7.53l35.5-17.64,5.78,7.8Z"/><path class="cls-2" d="M86.95,60.47,124.85,40.3S117.61,29.47,106,32.75c.55-5,1.23-9.26-4.08-13.42s-9.24-2.48-14-.75c.43-12-11.81-16.47-11.81-16.47L66.69,41.81l9.73,2.76Z"/><path class="cls-2" d="M80.27,52.37A23,23,0,0,1,86,67.08,23.57,23.57,0,0,1,81.12,82l-.14.18a22.45,22.45,0,0,1-13.43,8.09,19.94,19.94,0,0,1-15.31-3.11c-.31-.21-.6-.43-.9-.66-4.79-3.74-7.73-9.75-8.43-16.11s.84-12.92,4.51-17.58a18.5,18.5,0,0,1,3.88-3.7,23.18,23.18,0,0,1,13.78-4.57,19.41,19.41,0,0,1,11.7,4.14,20.09,20.09,0,0,1,6.81,10,15,15,0,0,1-.2,8.08,24.1,24.1,0,0,1-4.29,8.57,17.76,17.76,0,0,1-6,5.07,10.11,10.11,0,0,1-6.62,1,15.57,15.57,0,0,1-6.56-3.07,15.81,15.81,0,0,1-5.41-7.71,10.57,10.57,0,0,1,.94-8.58,11.19,11.19,0,0,1,.89-1.31,9.79,9.79,0,0,1,2.25-2.11,6.53,6.53,0,0,1,4.12-1.11,10.88,10.88,0,0,1,5.84,2.62l.17.13,0,0h0a8.3,8.3,0,0,1,2.88,4,4.83,4.83,0,0,1-.44,4l-.31.45a3.9,3.9,0,0,1-5,1l-.29-.2a2.45,2.45,0,0,1-.6-3.18,3.18,3.18,0,0,0-5.5-3.2,8.83,8.83,0,0,0,2.17,11.38,9.82,9.82,0,0,0,1,.69,10.24,10.24,0,0,0,13.2-2.53,11.93,11.93,0,0,0,.81-1.19,11.24,11.24,0,0,0,1-9,14.65,14.65,0,0,0-5-7.17l0,0-.17-.13a19.09,19.09,0,0,0-6.24-3.37,13,13,0,0,0-8.74.32,15,15,0,0,0-6.16,4.75,18.7,18.7,0,0,0-1.38,2,17,17,0,0,0-1.54,13.6A22.22,22.22,0,0,0,56,83.35a21.89,21.89,0,0,0,9.25,4.31,16.47,16.47,0,0,0,10.67-1.54,24,24,0,0,0,8.16-6.85,30.57,30.57,0,0,0,5.43-10.85,21.35,21.35,0,0,0,.14-11.55,26.38,26.38,0,0,0-9-13.2A25.72,25.72,0,0,0,65.2,38.18a29.61,29.61,0,0,0-17.55,5.74,24.8,24.8,0,0,0-5.22,5c-4.88,6.25-6.68,14.39-5.83,22.19S41,86.47,47.42,91.5c.39.3.79.6,1.19.88a26.41,26.41,0,0,0,20.13,4.14A28.93,28.93,0,0,0,86,86.09l.18-.23a29.94,29.94,0,0,0,6.23-18.91,29.4,29.4,0,0,0-7.33-18.77,3.18,3.18,0,0,0-4.78,4.19Z"/></svg>
