<?xml version="1.0" encoding="utf-8"?>
<!-- Generator: Adobe Illustrator 21.1.0, SVG Export Plug-In . SVG Version: 6.00 Build 0)  -->
<svg version="1.1" id="Layer_1" xmlns="http://www.w3.org/2000/svg" xmlns:xlink="http://www.w3.org/1999/xlink" x="0px" y="0px"
	 viewBox="0 0 128 138" style="enable-background:new 0 0 128 138;" xml:space="preserve">
<style type="text/css">
	.st0{fill:#D2376D;}
	.st1{fill:#EB92BB;}
</style>
<g>
	
		<ellipse transform="matrix(4.089532e-03 -1 1 4.089532e-03 -2.9902 134.0815)" class="st0" cx="65.8" cy="68.5" rx="24.7" ry="24.7"/>
	<path class="st1" d="M41.3,81.1L5,98.3c0,0-4-12.4,5.8-19.4c-4.3-2.7-8-4.8-8-11.5c0-6.7,3.8-8.8,8.1-11.4
		c-9.7-7.1-5.6-19.5-5.6-19.5L41,53.6L38.4,63L41.3,81.1z"/>
	<path class="st1" d="M83.8,81.2L123,98.8c0,0,4.1-12.4-5.6-19.5c4.3-2.6,8.1-4.7,8.1-11.5c0-6.7-3.7-8.8-8-11.5
		c9.7-7,5.8-19.4,5.8-19.4L86.1,53.8l3.8,9.4L83.8,81.2z"/>
	<path class="st1" d="M86.1,71c-1,5.3-3.9,10.1-8.1,13.6c-4.2,3.4-9.4,5.3-14.8,5.3l-0.2,0c-5.4-0.1-10.6-2.1-14.6-5.6
		c-4.1-3.5-6.6-8.6-6.9-14c0-0.4,0-0.7,0-1.1c0-6.1,3-12.1,7.5-16.5s10.7-7.3,16.6-7.2c1.8,0,3.6,0.3,5.3,0.8
		c4.8,1.3,9,4.2,12.1,8.1c2.6,3.4,3.9,7.5,3.9,11.8c0,4.1-1.3,8.1-3.7,11.5c-1.7,2.2-3.9,3.8-6.5,4.8c-3,1.2-6.2,1.9-9.4,1.9
		c-2.7,0-5.3-0.5-7.7-1.6c-2.1-0.9-3.8-2.6-4.9-4.6c-1.1-2.2-1.6-4.6-1.6-7.1c0-3.2,1-6.4,2.8-9c1.7-2.5,4.4-4.1,7.4-4.5
		c0.5-0.1,1.1-0.1,1.6-0.1c1,0,2.1,0.2,3,0.5c1.4,0.5,2.6,1.4,3.4,2.6c1.1,1.9,1.6,4,1.5,6.2l0,0.2l0,0l0,0c0,1.7-0.5,3.3-1.4,4.7
		c-0.8,1.2-2,1.9-3.4,2.1l-0.5,0c-1.9,0-3.6-1.4-3.9-3.3l0-0.4c0-1.2,0.9-2.3,2.1-2.4c1.7-0.2,3-1.8,2.7-3.6s-1.8-3-3.6-2.7l0,0
		c-4.4,0.6-7.6,4.3-7.7,8.7c0,0.4,0,0.8,0.1,1.2c0.7,5.1,5,8.8,10.1,8.9c0.5,0,1,0,1.4-0.1c3.1-0.4,5.9-2.1,7.7-4.7
		c1.7-2.5,2.6-5.4,2.6-8.3l0,0l0-0.2c0.1-2.4-0.3-4.8-1.2-7c-1-2.8-3-5.2-5.6-6.7c-2.3-1.3-4.9-2-7.5-1.9c-0.8,0-1.6,0-2.4,0.1
		c-4.7,0.6-9,3.2-11.7,7.1c-2.6,3.7-3.9,8.1-3.9,12.7c0,3.4,0.7,6.9,2.3,9.9c1.7,3.3,4.4,5.9,7.8,7.5c3.3,1.5,6.8,2.3,10.4,2.2
		c4.1,0,8.1-0.8,11.9-2.4c3.7-1.4,6.8-3.9,9.2-7c3.2-4.4,4.9-9.8,4.9-15.2c0-5.6-1.8-11.1-5.1-15.6c-3.9-5-9.2-8.6-15.3-10.3
		C70.4,39.4,68,39,65.6,39c-7.9,0-15.5,3.6-21.1,9S35,60.9,35,69.1c0,0.5,0,1,0,1.5c0.4,7.1,3.7,13.8,9.1,18.4
		c5.2,4.6,11.9,7.2,18.8,7.2l0.3,0c6.8,0,13.4-2.4,18.8-6.7c5.4-4.4,9-10.5,10.3-17.3c0.3-1.7-0.9-3.4-2.6-3.6
		C88,68.3,86.5,69.4,86.1,71L86.1,71z"/>
</g>
</svg>
